<?xml version="1.0" encoding="utf-8"?>
<!-- Generator: Adobe Illustrator 24.3.0, SVG Export Plug-In . SVG Version: 6.00 Build 0)  -->
<!DOCTYPE svg PUBLIC "-//W3C//DTD SVG 1.1//EN" "http://www.w3.org/Graphics/SVG/1.1/DTD/svg11.dtd" [
	<!ENTITY st0 "fill:#554D50;">
	<!ENTITY st1 "fill:url(#SVGID_1_);">
	<!ENTITY st2 "fill:#80A272;">
	<!ENTITY st3 "fill:#8BC68B;">
	<!ENTITY st4 "font-family:'NanumPen';">
	<!ENTITY st5 "font-size:170px;">
]>
<svg version="1.1" id="Layer_1" xmlns="http://www.w3.org/2000/svg" xmlns:xlink="http://www.w3.org/1999/xlink" x="0px" y="0px"
	 viewBox="0 0 950 587" style="enable-background:new 0 0 950 587;" xml:space="preserve">
<symbol  id="New_Symbol" viewBox="-3.2 -10.13 6.4 20.26">
	<ellipse style="&st0;" cx="0" cy="0" rx="3.2" ry="10.13"/>
</symbol>
<radialGradient id="SVGID_1_" cx="492.7845" cy="138.6522" r="471.4296" fx="453.0819" fy="138.6431" gradientTransform="matrix(6.123234e-17 1 -1.7386 1.064571e-16 733.842 -354.1323)" gradientUnits="userSpaceOnUse">
	<stop  offset="0" style="stop-color:#FDFEFE"/>
	<stop  offset="7.253791e-03" style="stop-color:#FCF0F6"/>
	<stop  offset="0.0297" style="stop-color:#F9D0E2"/>
	<stop  offset="0.0535" style="stop-color:#F6B4D1"/>
	<stop  offset="0.0783" style="stop-color:#F49DC3"/>
	<stop  offset="0.1046" style="stop-color:#F38DBA"/>
	<stop  offset="0.1329" style="stop-color:#F280B3"/>
	<stop  offset="0.1647" style="stop-color:#F179AF"/>
	<stop  offset="0.2076" style="stop-color:#F176AE"/>
	<stop  offset="1" style="stop-color:#D01F35"/>
</radialGradient>
<path style="&st1;" d="M299.15,327.71c-33.82-135.93,5.34-191.13,36.62-216.35c49.85-40.2,103.05-37.24,154.09-39.89
	c51.36-2.66,127.61-0.63,165.26,39.82c40.8,43.84,57.41,103.87,32.79,194.85c-42.7,157.79-122.95,278.12-184.38,278.12
	C439.13,584.26,334.07,468.03,299.15,327.71z"/>
<path style="&st2;" d="M439.16,94.32c-16.39-5.67-29.65-29.91-28.02-48.85c11.37,16,25.38,8.84,34.31,19.48
	c2.21-6.29-10.76-26.44-3.62-35.12c2.01,5.27,23.85,23.14,28.19,26.23c1.85-25.42,13.81-30.16,14.88-55.74
	c4.26,16.7,12.68,39.76,11.74,57.09c10.23-7.21,12.78-21.67,20.67-31.88c0.06,8.26,0.12,16.52,0.18,24.78
	c13.21-10.59,27.91-24.53,26.52-42.54c8.53,15.18,10.32,34.8,4.68,51.56c6.76-5.06,13.51-10.11,20.27-15.17
	c0.26,3.03-6.98,14.67-8.38,17.29c5.03-1.06,12.99-9.37,21.72-11.71c1.83,22.06-53.83,53.04-79.38,54.02
	C478.14,104.72,449.71,97.97,439.16,94.32z"/>
<text transform="matrix(1 0 0 1 159.9415 343.2472)" style="&st3; &st4; &st5;">Strawberry</text>
<ellipse style="&st0;" cx="514.73" cy="482.51" rx="3.2" ry="10.13"/>
<use xlink:href="#New_Symbol"  width="6.4" height="20.26" x="-3.2" y="-10.13" transform="matrix(1 0 0 -1 485.7561 434.7659)" style="overflow:visible;"/>
<ellipse style="&st0;" cx="496.67" cy="358.39" rx="3.2" ry="10.13"/>
<use xlink:href="#New_Symbol"  width="6.4" height="20.26" x="-3.2" y="-10.13" transform="matrix(1 0 0 -1 544.554 411.3126)" style="overflow:visible;"/>
<use xlink:href="#New_Symbol"  width="6.4" height="20.26" x="-3.2" y="-10.13" transform="matrix(1 0 0 -1 441.775 391.0509)" style="overflow:visible;"/>
<use xlink:href="#New_Symbol"  width="6.4" height="20.26" x="-3.2" y="-10.13" transform="matrix(1 0 0 -1 363.81 380.9201)" style="overflow:visible;"/>
<use xlink:href="#New_Symbol"  width="6.4" height="20.26" x="-3.2" y="-10.13" transform="matrix(1 0 0 -1 407.8086 434.7659)" style="overflow:visible;"/>
<use xlink:href="#New_Symbol"  width="6.4" height="20.26" x="-3.2" y="-10.13" transform="matrix(1 0 0 -1 586.5754 459.047)" style="overflow:visible;"/>
<use xlink:href="#New_Symbol"  width="6.4" height="20.26" x="-3.2" y="-10.13" transform="matrix(1 0 0 -1 596.6502 385.3564)" style="overflow:visible;"/>
<use xlink:href="#New_Symbol"  width="6.4" height="20.26" x="-3.2" y="-10.13" transform="matrix(0.7969 0 0 -0.7659 464.0081 549.6754)" style="overflow:visible;"/>
<use xlink:href="#New_Symbol"  width="6.4" height="20.26" x="-3.2" y="-10.13" transform="matrix(1 0 0 -1 496.6714 528.1254)" style="overflow:visible;"/>
<use xlink:href="#New_Symbol"  width="6.4" height="20.26" x="-3.2" y="-10.13" transform="matrix(0.7969 0 0 -0.7977 530.509 541.5941)" style="overflow:visible;"/>
<use xlink:href="#New_Symbol"  width="6.4" height="20.26" x="-3.2" y="-10.13" transform="matrix(1 0 0 -1 423.914 497.4547)" style="overflow:visible;"/>
<use xlink:href="#New_Symbol"  width="6.4" height="20.26" x="-3.2" y="-10.13" transform="matrix(1 0 0 -1 464.0081 482.5138)" style="overflow:visible;"/>
<use xlink:href="#New_Symbol"  width="6.4" height="20.26" x="-3.2" y="-10.13" transform="matrix(0.7969 0 0 -0.7977 553.4423 489.3734)" style="overflow:visible;"/>
<use xlink:href="#New_Symbol"  width="6.4" height="20.26" x="-3.2" y="-10.13" transform="matrix(1 0 0 -1 404.6094 343.2467)" style="overflow:visible;"/>
<use xlink:href="#New_Symbol"  width="6.4" height="20.26" x="-3.2" y="-10.13" transform="matrix(1 0 0 -1 633.6893 336.8396)" style="overflow:visible;"/>
<use xlink:href="#New_Symbol"  width="6.4" height="20.26" x="-3.2" y="-10.13" transform="matrix(1 0 0 -1 616.4126 211.2849)" style="overflow:visible;"/>
<use xlink:href="#New_Symbol"  width="6.4" height="20.26" x="-3.2" y="-10.13" transform="matrix(1 0 0 -1 466.5576 238.8678)" style="overflow:visible;"/>
<use xlink:href="#New_Symbol"  width="6.4" height="20.26" x="-3.2" y="-10.13" transform="matrix(1 0 0 -1 673.3616 228.737)" style="overflow:visible;"/>
<use xlink:href="#New_Symbol"  width="6.4" height="20.26" id="XMLID_1_" x="-3.2" y="-10.13" transform="matrix(1 0 0 -1 559.8407 224.1443)" style="overflow:visible;"/>
<use xlink:href="#New_Symbol"  width="6.4" height="20.26" x="-3.2" y="-10.13" transform="matrix(0.5706 0 0 -1 330.2742 339.0148)" style="overflow:visible;"/>
<use xlink:href="#New_Symbol"  width="6.4" height="20.26" x="-3.2" y="-10.13" transform="matrix(1 0 0 -1 348.5209 235.8172)" style="overflow:visible;"/>
<use xlink:href="#New_Symbol"  width="6.4" height="20.26" x="-3.2" y="-10.13" transform="matrix(0.5 0 0 -0.8601 308.1743 208.0492)" style="overflow:visible;"/>
<use xlink:href="#New_Symbol"  width="6.4" height="20.26" x="-3.2" y="-10.13" transform="matrix(1 0 0 -1 553.4423 343.247)" style="overflow:visible;"/>
<use xlink:href="#New_Symbol"  width="6.4" height="20.26" x="-3.2" y="-10.13" transform="matrix(1 0 0 -1 401.4102 199.3356)" style="overflow:visible;"/>
<use xlink:href="#New_Symbol"  width="6.4" height="20.26" x="-3.2" y="-10.13" transform="matrix(1 0 0 -0.6751 625.4539 421.4434)" style="overflow:visible;"/>
<use xlink:href="#New_Symbol"  width="6.4" height="20.26" x="-3.2" y="-10.13" transform="matrix(0.5 0 0 -0.582 572.9036 514.5182)" style="overflow:visible;"/>
<use xlink:href="#New_Symbol"  width="6.4" height="20.26" x="-3.2" y="-10.13" transform="matrix(0.6998 0 0 -0.6347 377.2182 459.9807)" style="overflow:visible;"/>
</svg>
