<?xml version="1.0" encoding="utf-8"?>
<!-- Generator: Adobe Illustrator 24.3.0, SVG Export Plug-In . SVG Version: 6.00 Build 0)  -->
<!DOCTYPE svg PUBLIC "-//W3C//DTD SVG 1.1//EN" "http://www.w3.org/Graphics/SVG/1.1/DTD/svg11.dtd" [
	<!ENTITY st0 "fill:#554D50;">
	<!ENTITY st1 "fill:url(#SVGID_1_);">
	<!ENTITY st2 "fill:#80A272;">
	<!ENTITY st3 "fill:#8BC68B;">
	<!ENTITY st4 "font-family:'NanumPen';">
	<!ENTITY st5 "font-size:170px;">
]>
<svg version="1.1" id="Layer_1" xmlns="http://www.w3.org/2000/svg" xmlns:xlink="http://www.w3.org/1999/xlink" x="500px" y="500px"
	 viewBox="0 0 672.34 583.95" style="enable-background:new 0 0 672.34 583.95;" xml:space="preserve">
<symbol  id="New_Symbol" viewBox="-3.2 -10.13 6.4 20.26">
	<ellipse style="&st0;" cx="0" cy="0" rx="3.2" ry="10.13"/>
</symbol>
<radialGradient id="SVGID_1_" cx="332.8431" cy="138.333" r="471.4296" fx="293.1405" fy="138.3239" gradientTransform="matrix(6.123234e-17 1 -1.7386 1.064571e-16 573.3456 -194.5101)" gradientUnits="userSpaceOnUse">
	<stop  offset="0" style="stop-color:#FDFEFE"/>
	<stop  offset="7.253791e-03" style="stop-color:#FCF0F6"/>
	<stop  offset="0.0297" style="stop-color:#F9D0E2"/>
	<stop  offset="0.0535" style="stop-color:#F6B4D1"/>
	<stop  offset="0.0783" style="stop-color:#F49DC3"/>
	<stop  offset="0.1046" style="stop-color:#F38DBA"/>
	<stop  offset="0.1329" style="stop-color:#F280B3"/>
	<stop  offset="0.1647" style="stop-color:#F179AF"/>
	<stop  offset="0.2076" style="stop-color:#F176AE"/>
	<stop  offset="1" style="stop-color:#D01F35"/>
</radialGradient>
<path style="&st1;" d="M139.21,327.39c-33.82-135.93,5.34-191.13,36.62-216.35c49.85-40.2,103.05-37.24,154.09-39.89
	c51.36-2.66,127.61-0.63,165.26,39.82c40.8,43.84,57.41,103.87,32.79,194.85c-42.7,157.79-122.95,278.12-184.38,278.12
	C279.19,583.95,174.13,467.71,139.21,327.39z"/>
<path style="&st2;" d="M279.22,94c-16.39-5.67-29.65-29.91-28.02-48.85c11.37,16,25.38,8.84,34.31,19.48
	c2.21-6.29-10.76-26.44-3.62-35.12c2.01,5.27,23.85,23.14,28.19,26.23c1.85-25.42,13.81-30.16,14.88-55.74
	c4.26,16.7,12.68,39.76,11.74,57.09c10.23-7.21,12.78-21.67,20.67-31.88c0.06,8.26,0.12,16.52,0.18,24.78
	c13.21-10.59,27.91-24.53,26.52-42.54c8.53,15.18,10.32,34.8,4.68,51.56c6.76-5.06,13.51-10.11,20.27-15.17
	c0.26,3.03-6.98,14.67-8.38,17.29c5.03-1.06,12.99-9.37,21.72-11.71c1.83,22.06-53.83,53.04-79.38,54.02
	C318.2,104.41,289.77,97.65,279.22,94z"/>
<text transform="matrix(1 0 0 1 9.155273e-05 342.928)" style="&st3; &st4; &st5;">Strawberry</text>
<ellipse style="&st0;" cx="354.79" cy="482.19" rx="3.2" ry="10.13"/>
<use xlink:href="#New_Symbol"  width="6.4" height="20.26" x="-3.2" y="-10.13" transform="matrix(1 0 0 -1 325.8147 434.4467)" style="overflow:visible;"/>
<ellipse style="&st0;" cx="336.73" cy="358.07" rx="3.2" ry="10.13"/>
<use xlink:href="#New_Symbol"  width="6.4" height="20.26" x="-3.2" y="-10.13" transform="matrix(1 0 0 -1 384.6125 410.9933)" style="overflow:visible;"/>
<use xlink:href="#New_Symbol"  width="6.4" height="20.26" x="-3.2" y="-10.13" transform="matrix(1 0 0 -1 281.8336 390.7317)" style="overflow:visible;"/>
<use xlink:href="#New_Symbol"  width="6.4" height="20.26" x="-3.2" y="-10.13" transform="matrix(1 0 0 -1 203.8686 380.6009)" style="overflow:visible;"/>
<use xlink:href="#New_Symbol"  width="6.4" height="20.26" x="-3.2" y="-10.13" transform="matrix(1 0 0 -1 247.8672 434.4467)" style="overflow:visible;"/>
<use xlink:href="#New_Symbol"  width="6.4" height="20.26" x="-3.2" y="-10.13" transform="matrix(1 0 0 -1 426.634 458.7278)" style="overflow:visible;"/>
<use xlink:href="#New_Symbol"  width="6.4" height="20.26" x="-3.2" y="-10.13" transform="matrix(1 0 0 -1 436.7088 385.0372)" style="overflow:visible;"/>
<use xlink:href="#New_Symbol"  width="6.4" height="20.26" x="-3.2" y="-10.13" transform="matrix(0.7969 0 0 -0.7659 304.0667 549.3561)" style="overflow:visible;"/>
<use xlink:href="#New_Symbol"  width="6.4" height="20.26" x="-3.2" y="-10.13" transform="matrix(1 0 0 -1 336.73 527.8062)" style="overflow:visible;"/>
<use xlink:href="#New_Symbol"  width="6.4" height="20.26" x="-3.2" y="-10.13" transform="matrix(0.7969 0 0 -0.7977 370.5676 541.2749)" style="overflow:visible;"/>
<use xlink:href="#New_Symbol"  width="6.4" height="20.26" x="-3.2" y="-10.13" transform="matrix(1 0 0 -1 263.9726 497.1354)" style="overflow:visible;"/>
<use xlink:href="#New_Symbol"  width="6.4" height="20.26" x="-3.2" y="-10.13" transform="matrix(1 0 0 -1 304.0667 482.1945)" style="overflow:visible;"/>
<use xlink:href="#New_Symbol"  width="6.4" height="20.26" x="-3.2" y="-10.13" transform="matrix(0.7969 0 0 -0.7977 393.5009 489.0542)" style="overflow:visible;"/>
<use xlink:href="#New_Symbol"  width="6.4" height="20.26" x="-3.2" y="-10.13" transform="matrix(1 0 0 -1 244.668 342.9275)" style="overflow:visible;"/>
<use xlink:href="#New_Symbol"  width="6.4" height="20.26" x="-3.2" y="-10.13" transform="matrix(1 0 0 -1 473.7479 336.5204)" style="overflow:visible;"/>
<use xlink:href="#New_Symbol"  width="6.4" height="20.26" x="-3.2" y="-10.13" transform="matrix(1 0 0 -1 456.4712 210.9657)" style="overflow:visible;"/>
<use xlink:href="#New_Symbol"  width="6.4" height="20.26" x="-3.2" y="-10.13" transform="matrix(1 0 0 -1 306.6161 238.5486)" style="overflow:visible;"/>
<use xlink:href="#New_Symbol"  width="6.4" height="20.26" x="-3.2" y="-10.13" transform="matrix(1 0 0 -1 513.4202 228.4178)" style="overflow:visible;"/>
<use xlink:href="#New_Symbol"  width="6.4" height="20.26" id="XMLID_1_" x="-3.2" y="-10.13" transform="matrix(1 0 0 -1 399.8993 223.8251)" style="overflow:visible;"/>
<use xlink:href="#New_Symbol"  width="6.4" height="20.26" x="-3.2" y="-10.13" transform="matrix(0.5706 0 0 -1 170.3328 338.6956)" style="overflow:visible;"/>
<use xlink:href="#New_Symbol"  width="6.4" height="20.26" x="-3.2" y="-10.13" transform="matrix(1 0 0 -1 188.5795 235.498)" style="overflow:visible;"/>
<use xlink:href="#New_Symbol"  width="6.4" height="20.26" x="-3.2" y="-10.13" transform="matrix(0.5 0 0 -0.8601 148.2329 207.7299)" style="overflow:visible;"/>
<use xlink:href="#New_Symbol"  width="6.4" height="20.26" x="-3.2" y="-10.13" transform="matrix(1 0 0 -1 393.5009 342.9278)" style="overflow:visible;"/>
<use xlink:href="#New_Symbol"  width="6.4" height="20.26" x="-3.2" y="-10.13" transform="matrix(1 0 0 -1 241.4688 199.0164)" style="overflow:visible;"/>
<use xlink:href="#New_Symbol"  width="6.4" height="20.26" x="-3.2" y="-10.13" transform="matrix(1 0 0 -0.6751 465.5125 421.1242)" style="overflow:visible;"/>
<use xlink:href="#New_Symbol"  width="6.4" height="20.26" x="-3.2" y="-10.13" transform="matrix(0.5 0 0 -0.582 412.9622 514.199)" style="overflow:visible;"/>
<use xlink:href="#New_Symbol"  width="6.4" height="20.26" x="-3.2" y="-10.13" transform="matrix(0.6998 0 0 -0.6347 217.2767 459.6615)" style="overflow:visible;"/>
</svg>
