<svg height="512pt" viewBox="0 0 512 512" width="512pt" xmlns="http://www.w3.org/2000/svg"><g fill-rule="evenodd"><path d="m183.699219 64.265625c-65.855469 0-119.433594 53.578125-119.433594 119.433594 0 65.859375 53.578125 119.433593 119.433594 119.433593s119.433593-53.578124 119.433593-119.433593-53.578124-119.433594-119.433593-119.433594zm0 208.867187c-49.3125 0-89.433594-40.117187-89.433594-89.433593 0-49.3125 40.121094-89.433594 89.433594-89.433594 49.316406 0 89.433593 40.121094 89.433593 89.433594 0 49.316406-40.117187 89.433593-89.433593 89.433593zm0 0"/><path d="m494.855469 409.375-82.675781-82.675781c-15.269532-15.269531-40.003907-15.289063-55.292969 0l-4.488281 4.488281-28.695313-28.699219c27.238281-32.050781 43.699219-73.527343 43.699219-118.789062-.003906-101.292969-82.410156-183.699219-183.703125-183.699219s-183.699219 82.40625-183.699219 183.699219 82.40625 183.699219 183.699219 183.699219c45.257812 0 86.738281-16.460938 118.789062-43.695313l28.699219 28.695313-4.488281 4.488281c-15.269531 15.269531-15.289063 40.003906 0 55.292969l82.675781 82.671874c11.054688 11.058594 25.757812 17.148438 41.402344 17.148438 33.757812 0 61.222656-27.464844 61.222656-61.230469 0-15.636719-6.089844-30.339843-17.144531-41.394531zm-464.855469-225.675781c0-84.75 68.949219-153.699219 153.699219-153.699219s153.699219 68.949219 153.699219 153.699219-68.949219 153.699219-153.699219 153.699219-153.699219-68.949219-153.699219-153.699219zm420.769531 298.300781c-7.625 0-14.792969-2.96875-20.183593-8.359375l-82.671876-82.671875c-3.546874-3.546875-3.546874-9.320312 0-12.871094l15.082032-15.082031c.003906-.003906.007812-.003906.011718-.007813.003907-.003906.003907-.007812.007813-.011718l15.082031-15.082032c3.550782-3.546874 9.320313-3.550781 12.871094 0l82.671875 82.671876c5.390625 5.390624 8.359375 12.558593 8.359375 20.191406 0 17.214844-14.007812 31.222656-31.230469 31.222656zm0 0"/><path d="m241.503906 188.242188c-6.363281-5.300782-15.820312-4.441407-21.125 1.921874-.03125.035157-.074218.085938-.101562.121094-.132813.164063-.265625.328125-.390625.5-8.496094 11.328125-22.023438 18.09375-36.1875 18.09375-14.148438 0-27.664063-6.75-36.160157-18.058594-4.730468-6.378906-13.683593-7.988281-20.359374-3.535156-6.894532 4.597656-8.757813 13.910156-4.160157 20.800782.164063.246093.339844.492187.519531.734374 14.136719 18.820313 36.621094 30.058594 60.160157 30.058594 23.496093 0 45.941406-11.195312 60.078125-29.949218 4.90625-6.355469 3.945312-15.503907-2.273438-20.6875zm0 0"/><path d="m166.566406 151.566406c0 8.285156-6.714844 15-15 15s-15-6.714844-15-15 6.714844-15 15-15 15 6.714844 15 15zm0 0"/><path d="m230.832031 151.566406c0 8.285156-6.714843 15-15 15-8.285156 0-15-6.714844-15-15s6.714844-15 15-15c8.285157 0 15 6.714844 15 15zm0 0"/></g></svg>